HIERARCHY
ROOT root
{
	OFFSET 0.000000 0.000000 0.000000
	CHANNELS 6 Xposition Yposition Zposition Zrotation Yrotation Xrotation
	JOINT lhip
	{
		OFFSET 0.058581 -0.082280 -0.017664
		CHANNELS 3 Zrotation Yrotation Xrotation
		JOINT lknee
		{
			OFFSET 0.043451 -0.386469 0.008037
			CHANNELS 3 Zrotation Yrotation Xrotation
			JOINT lankle
			{
				OFFSET -0.014790 -0.426874 -0.037428
				CHANNELS 3 Zrotation Yrotation Xrotation
				JOINT ltoe
				{
					OFFSET 0.041054 -0.060286 0.122042
					CHANNELS 3 Zrotation Yrotation Xrotation
					End Site
					{
						OFFSET 0.000000 0.000000 0.000000
					}
				}
			}
		}
	}
	JOINT rhip
	{
		OFFSET -0.060310 -0.090513 -0.013543
		CHANNELS 3 Zrotation Yrotation Xrotation
		JOINT rknee
		{
			OFFSET -0.043257 -0.383688 -0.004843
			CHANNELS 3 Zrotation Yrotation Xrotation
			JOINT rankle
			{
				OFFSET 0.019056 -0.420046 -0.034562
				CHANNELS 3 Zrotation Yrotation Xrotation
				JOINT rtoe
				{
					OFFSET -0.034840 -0.062106 0.130323
					CHANNELS 3 Zrotation Yrotation Xrotation
					End Site
					{
						OFFSET 0.000000 0.000000 0.000000
					}
				}
			}
		}
	}
	JOINT lowerback
	{
		OFFSET 0.004439 0.124404 -0.038385
		CHANNELS 3 Zrotation Yrotation Xrotation
		JOINT upperback
		{
			OFFSET 0.004488 0.137956 0.026820
			CHANNELS 3 Zrotation Yrotation Xrotation
			JOINT chest
			{
				OFFSET -0.002265 0.056032 0.002855
				CHANNELS 3 Zrotation Yrotation Xrotation
				JOINT lowerneck
				{
					OFFSET -0.013390 0.211636 -0.033468
					CHANNELS 3 Zrotation Yrotation Xrotation
					JOINT upperneck
					{
						OFFSET 0.010113 0.088937 0.050410
						CHANNELS 3 Zrotation Yrotation Xrotation
						End Site
						{
							OFFSET 0.000000 0.000000 0.000000
						}
					}
				}
				JOINT lclavicle
				{
					OFFSET 0.071702 0.114000 -0.018898
					CHANNELS 3 Zrotation Yrotation Xrotation
					JOINT lshoulder
					{
						OFFSET 0.122921 0.045205 -0.019046
						CHANNELS 3 Zrotation Yrotation Xrotation
						JOINT lelbow
						{
							OFFSET 0.255332 -0.015649 -0.022946
							CHANNELS 3 Zrotation Yrotation Xrotation
							JOINT lwrist
							{
								OFFSET 0.265709 0.012698 -0.007375
								CHANNELS 3 Zrotation Yrotation Xrotation
								End Site
								{
									OFFSET 0.000000 0.000000 0.000000
								}
							}
						}
					}
				}
				JOINT rclavicle
				{
					OFFSET -0.082954 0.112472 -0.023707
					CHANNELS 3 Zrotation Yrotation Xrotation
					JOINT rshoulder
					{
						OFFSET -0.113228 0.046853 -0.008472
						CHANNELS 3 Zrotation Yrotation Xrotation
						JOINT relbow
						{
							OFFSET -0.260127 -0.014369 -0.031269
							CHANNELS 3 Zrotation Yrotation Xrotation
							JOINT rwrist
							{
								OFFSET -0.269108 0.006794 -0.006027
								CHANNELS 3 Zrotation Yrotation Xrotation
								End Site
								{
									OFFSET 0.000000 0.000000 0.000000
								}
							}
						}
					}
				}
			}
		}
	}
}
MOTION
Frames: 16
Frame Time: 0.033333
-0.505765 0.214135 0.992356 94.396376 0.057236 87.363389 1.170515 -0.128524 -5.993388 -4.681943 -4.567898 19.124013 3.570849 6.787346 -14.427210 0.000000 -0.000000 0.000000 1.879055 -3.687427 -9.311583 -0.906541 -5.936261 18.153657 -0.838655 -8.667332 -15.279434 0.000000 -0.000000 0.000000 0.645945 0.799087 3.414346 2.984194 -3.307739 0.554275 -0.487823 -1.654534 1.912722 2.280040 9.394105 14.811037 -1.088929 5.612512 16.759021 -18.850228 2.325513 0.398622 -68.324155 -12.868154 17.955790 1.937956 -20.054087 22.383921 3.678060 4.717729 -7.377618 17.175283 -1.566556 -0.767510 65.182420 11.761623 16.667283 -5.841112 13.526171 3.208624 13.225415 2.020228 -23.715480 
-0.508068 0.217925 0.993236 94.765062 0.418631 87.631586 1.512280 -0.135291 -6.068963 -4.905930 -5.020382 18.408676 3.450945 6.538878 -14.156911 0.000000 -0.000000 0.000000 1.828389 -3.939277 -9.092070 -0.552219 -6.131557 17.144026 -0.604265 -8.736614 -14.658698 0.000000 -0.000000 0.000000 0.727052 0.598494 3.504038 2.943434 -3.296220 0.455576 -0.401591 -1.678089 1.815420 2.814162 9.647193 14.604219 -1.405825 4.963538 17.300630 -18.417943 2.511299 0.773285 -68.455543 -13.564608 17.588210 1.420358 -19.965426 23.860852 -7.896176 3.881198 -9.299678 17.043292 -1.935942 -0.636704 65.929485 11.725218 17.051801 -7.072596 13.761958 3.220261 17.499775 1.857405 -23.610652 
-0.510552 0.221272 0.994319 94.518185 0.673700 87.848613 1.784469 -0.239210 -6.237981 -5.076780 -4.953050 18.129254 3.276439 6.365533 -13.824389 0.000000 -0.000000 0.000000 1.786897 -3.836725 -9.151618 -0.503906 -6.506620 16.682980 -0.602486 -8.456333 -14.248686 0.000000 -0.000000 0.000000 0.461848 0.812475 3.457361 3.098903 -3.160765 0.662299 -0.289251 -1.560170 1.625326 3.152303 9.875242 15.034156 -1.536143 4.395316 16.961570 -17.999839 2.586779 1.066989 -68.550689 -13.914239 17.541877 1.208060 -20.409686 24.696986 -13.466952 3.061669 -10.841830 16.866851 -1.967823 -0.433315 66.619870 11.264391 17.273433 -7.783408 14.508536 3.283777 18.570408 2.037902 -24.653728 
-0.512415 0.225155 0.994584 94.023610 1.001911 87.980814 1.899476 -0.042089 -6.159682 -4.938251 -4.687605 17.571168 3.563085 6.319130 -13.660996 0.000000 -0.000000 0.000000 1.800326 -4.203529 -9.243221 -0.435158 -6.455869 16.411691 -0.225547 -7.947506 -13.940639 0.000000 -0.000000 0.000000 0.233313 1.214932 3.255828 3.129087 -3.084550 1.134494 -0.187452 -1.405525 1.474009 3.145145 9.905354 15.309394 -1.232946 4.274987 16.705431 -17.756680 2.305496 1.213258 -68.297375 -13.980228 17.547540 1.357358 -21.355190 24.360217 -13.192624 3.372265 -11.351249 16.893762 -1.649512 -0.159210 67.234908 11.061959 17.302701 -8.008432 14.526702 3.307560 18.848854 2.007020 -24.643339 
-0.513851 0.227361 0.994524 93.514699 1.160761 87.975562 1.883266 0.027764 -5.942965 -4.846152 -4.564844 17.098566 3.639885 6.551859 -13.641336 0.000000 -0.000000 0.000000 1.778438 -4.122789 -9.360216 -0.362813 -6.402426 16.455476 -0.021158 -7.657563 -13.800341 0.000000 -0.000000 0.000000 0.091898 1.364291 3.420119 3.088691 -2.828877 1.203006 -0.108764 -1.324617 1.448728 3.209076 10.052888 15.371805 -1.223777 4.313181 16.716652 -17.696970 2.379939 0.971646 -67.968436 -13.992815 17.547766 1.145550 -21.619623 24.321522 -13.092265 3.396612 -11.369895 17.020316 -1.472187 -0.108355 67.421323 11.059713 17.557699 -7.768602 14.517070 3.299253 18.848375 2.176644 -24.702138 
-0.515239 0.229860 0.994582 92.885944 1.362633 88.015548 1.938475 0.075028 -5.722234 -4.724737 -4.315997 16.496570 3.706001 6.665146 -13.548532 0.000000 -0.000000 0.000000 1.812124 -4.106952 -9.478285 -0.292141 -6.221375 16.334792 0.058211 -7.306934 -13.447151 0.000000 -0.000000 0.000000 -0.054012 1.574315 3.606890 3.059170 -2.665426 1.185712 -0.111366 -1.125685 1.317635 3.236323 10.267723 15.726969 -1.197596 4.305440 16.772288 -17.699271 2.407677 0.984437 -67.388061 -13.906719 17.388982 1.098792 -22.065024 24.034996 -12.903483 3.534681 -11.280956 17.248786 -1.358639 0.119000 67.753955 10.923758 17.813065 -7.701046 14.788342 3.567035 18.802251 1.952330 -24.711462 
-0.516551 0.232303 0.994680 92.688904 1.454194 88.091209 1.885426 0.123820 -5.645648 -4.682011 -4.465052 16.083344 3.756974 6.703262 -13.354357 0.000000 -0.000000 0.000000 1.739533 -4.151535 -9.672358 -0.318664 -6.322708 16.345777 0.269009 -7.208876 -13.240672 0.000000 -0.000000 0.000000 -0.297104 1.596268 3.702147 2.997942 -2.571006 1.095003 -0.078943 -1.097474 1.396107 3.261388 10.516327 15.971517 -1.153322 4.376586 16.729212 -17.654617 2.619464 0.804174 -67.031577 -14.065041 17.211751 1.100260 -21.781712 23.974823 -12.812346 3.728014 -11.306243 17.388811 -1.427356 0.077262 68.211151 10.786349 18.164202 -7.577583 15.065305 4.000986 18.801065 1.995963 -24.608748 
-0.517578 0.234722 0.994549 92.386873 1.606735 88.126058 1.948971 0.188778 -5.613178 -4.704813 -4.322693 15.892363 3.756602 6.694031 -13.283310 0.000000 -0.000000 0.000000 1.670268 -4.078234 -9.791380 -0.209590 -6.345211 16.384375 0.414154 -6.967256 -13.170805 0.000000 -0.000000 0.000000 -0.381140 1.679671 3.539336 2.964395 -2.517282 1.370370 -0.150447 -1.026278 1.470498 3.405566 10.743408 16.071556 -1.293829 4.399542 16.896974 -17.587016 2.609476 0.620809 -66.855965 -14.108284 17.015429 1.531074 -21.195101 23.259806 -12.828361 3.859842 -10.929623 17.522783 -1.384676 0.084774 68.618310 10.790415 18.460186 -7.446321 15.119230 4.231074 19.063095 2.147591 -24.499596 
-0.518269 0.237236 0.994562 92.504927 1.708859 88.179170 1.962749 0.234119 -5.687489 -4.821043 -4.417309 15.789255 3.789951 6.704759 -13.143638 0.000000 -0.000000 0.000000 1.611515 -4.009738 -9.777964 -0.164612 -6.329805 16.215337 0.407630 -7.148202 -12.939779 0.000000 -0.000000 0.000000 -0.409593 1.567404 3.827834 2.905054 -2.601338 1.106639 -0.184536 -1.032034 1.432254 3.278909 10.918867 16.221395 -1.228422 4.560110 16.948448 -17.577778 2.629134 0.609894 -66.538635 -14.102785 16.644603 1.580455 -20.394291 22.867146 -12.859111 3.959292 -10.924714 17.515095 -1.455766 0.126560 69.059164 10.544628 18.673190 -7.361560 15.491996 4.522250 19.084777 2.067703 -24.600911 
-0.518416 0.240249 0.994513 92.597792 1.801330 88.124336 1.891317 0.380023 -5.651520 -4.828624 -4.478731 15.774480 3.875683 6.666681 -13.054696 0.000000 -0.000000 0.000000 1.561802 -4.023595 -9.751189 -0.209206 -6.393752 16.244942 0.376560 -7.311476 -12.762304 0.000000 -0.000000 0.000000 -0.475654 1.583852 3.870734 2.880399 -2.636779 1.221915 -0.164357 -1.021817 1.420730 3.102058 10.864622 16.395618 -1.186860 4.710695 16.873491 -17.723131 2.284196 0.665617 -66.265171 -14.248953 16.363504 1.735634 -18.919926 22.294317 -12.363727 4.074994 -10.564896 17.581035 -1.392221 -0.024810 69.212258 10.015438 18.780160 -7.266588 16.136922 4.843481 18.414972 2.351050 -24.308678 
-0.518523 0.242247 0.994452 92.564205 1.869848 88.190685 1.807582 0.269221 -5.683189 -4.780308 -4.477921 15.724588 3.900826 6.779438 -13.077975 0.000000 -0.000000 0.000000 1.487119 -3.950135 -9.738817 -0.149553 -6.388444 16.093691 0.456923 -7.312005 -12.684665 0.000000 -0.000000 0.000000 -0.536017 1.598197 3.937852 2.877933 -2.744737 1.133345 -0.155642 -1.037317 1.488450 3.078044 11.035030 16.386447 -1.220694 4.724058 16.833318 -17.630920 2.290260 0.662360 -66.270134 -14.196026 16.231470 1.848830 -18.050167 22.196900 -12.340610 4.314437 -10.417919 17.582881 -1.458244 0.101096 69.332133 10.166294 18.967228 -7.195266 16.246251 5.229905 18.377799 2.113805 -24.337787 
-0.518705 0.244398 0.994386 92.553798 1.934530 88.156931 1.730137 0.295955 -5.649289 -4.759259 -4.504809 15.679670 3.935666 6.807951 -12.995809 0.000000 -0.000000 0.000000 1.396846 -3.886874 -9.696479 -0.107015 -6.364679 16.085844 0.543351 -7.330345 -12.632683 0.000000 -0.000000 0.000000 -0.565895 1.624850 4.059471 2.899654 -2.686047 1.123925 -0.082573 -1.059388 1.534640 3.049379 11.014448 16.419714 -1.295120 4.723582 16.938993 -17.671667 2.140529 0.737339 -66.216661 -14.123969 16.117690 1.841846 -17.410366 21.967846 -12.079558 4.266288 -10.154610 17.576382 -1.277449 -0.035505 69.194741 10.043888 18.938293 -7.265241 16.246927 5.016742 17.997599 2.269797 -24.159640 
-0.517466 0.246078 0.994233 92.583544 2.035570 88.259311 1.744735 0.463305 -5.720841 -4.750728 -4.511744 15.747876 3.927263 6.719036 -13.071506 0.000000 -0.000000 0.000000 1.433179 -4.018414 -9.692326 -0.108393 -6.252310 16.044987 0.584477 -7.314539 -12.727487 0.000000 -0.000000 0.000000 -0.522736 1.586916 4.045706 2.928639 -2.731101 1.006915 -0.078493 -1.098375 1.487513 2.923587 11.046835 16.532516 -1.326064 4.852926 16.861632 -17.663660 2.486645 0.724229 -66.205350 -13.820216 16.025856 1.685526 -17.065096 22.407728 -12.276740 4.188733 -10.135849 17.524703 -1.427467 -0.041159 69.163914 10.159172 18.886418 -7.204329 15.953776 5.145582 18.059935 2.264010 -24.176243 
-0.517147 0.247920 0.994188 92.514422 2.127079 88.203708 1.739872 0.424096 -5.677606 -4.771389 -4.392573 15.843548 3.951776 6.738721 -13.160677 0.000000 -0.000000 0.000000 1.431292 -4.129162 -9.687118 -0.144784 -6.141883 16.169279 0.665459 -7.234980 -12.667758 0.000000 -0.000000 0.000000 -0.420655 1.640653 3.969632 2.949246 -2.754467 1.200620 -0.139876 -1.048977 1.580145 3.074926 11.024087 16.595073 -1.408557 4.797179 16.834472 -17.640850 2.490230 0.740292 -66.261554 -13.713257 16.123272 1.618114 -16.845046 22.570911 -12.190299 4.286739 -10.298531 17.543752 -1.425779 0.014589 68.928018 10.500001 18.825396 -7.247832 15.844656 5.070660 17.727951 2.002610 -24.045088 
-0.515989 0.249628 0.993981 92.395307 2.139606 88.208610 1.630245 0.517316 -5.570225 -4.769874 -4.387266 15.789502 4.091904 6.776967 -13.197888 0.000000 -0.000000 0.000000 1.376328 -4.138270 -9.672440 -0.183279 -6.024815 16.209655 0.612727 -7.185557 -12.732922 0.000000 -0.000000 0.000000 -0.355875 1.672102 3.962019 2.916395 -2.674299 1.167605 -0.160535 -1.007978 1.637740 3.078174 10.895791 16.611815 -1.425625 4.817751 16.899480 -17.721710 2.534205 0.815197 -66.204553 -13.481856 16.083608 1.487339 -16.833652 22.408640 -11.806748 4.152666 -10.049558 17.472651 -1.317768 0.051974 68.782133 10.594670 18.660767 -7.395991 15.613082 4.511681 17.312996 2.124288 -23.740539 
-0.515114 0.250984 0.993646 92.327503 2.105004 88.298305 1.420887 0.155036 -5.673936 -4.739243 -4.406858 15.846807 4.288378 7.240720 -13.208172 0.000000 -0.000000 0.000000 1.269896 -4.055447 -9.778863 -0.183488 -6.031301 16.367491 0.591486 -7.259406 -12.943558 0.000000 -0.000000 0.000000 -0.355277 1.753602 3.797929 2.887491 -2.650963 1.224976 -0.215700 -1.053883 1.757755 3.169932 10.992199 16.627060 -1.437899 4.841603 16.876098 -17.709760 2.784297 0.750055 -66.246492 -13.308014 16.200704 1.356646 -17.036678 22.538150 -11.882579 4.205456 -10.221425 17.544657 -1.429597 -0.038904 68.563040 10.873024 18.709864 -7.398207 15.431191 4.398563 17.306287 2.046009 -23.679947 
